<?xml version="1.0" standalone="no"?>
<!DOCTYPE svg PUBLIC "-//W3C//DTD SVG 20010904//EN"
 "http://www.w3.org/TR/2001/REC-SVG-20010904/DTD/svg10.dtd">
<svg version="1.0" xmlns="http://www.w3.org/2000/svg"
 width="40" height="40" viewBox="0 0 851.000000 1280.000000"
 preserveAspectRatio="xMidYMid meet">
<metadata>
Created by potrace 1.15, written by Peter Selinger 2001-2017
</metadata>
<g transform="translate(0.000000,1280.000000) scale(0.100000,-0.100000)"
fill="#FFFFFF" stroke="none">
<path d="M4213 12689 c-22 -57 -107 -279 -188 -492 -82 -213 -152 -386 -156
-385 -4 2 -141 188 -304 413 -163 226 -302 416 -308 423 -10 9 -24 -97 -67
-513 -30 -289 -57 -525 -60 -525 -3 0 -189 149 -414 331 -224 182 -409 329
-410 327 -1 -1 35 -230 80 -508 46 -278 82 -512 81 -521 -2 -14 -29 -5 -147
48 -80 36 -295 132 -479 215 -183 82 -335 148 -337 146 -2 -2 93 -220 211
-483 118 -263 213 -480 212 -482 -2 -2 -102 13 -223 32 -120 20 -304 49 -409
66 -104 17 -239 39 -300 49 -60 10 -111 17 -113 16 -1 -2 146 -186 328 -409
181 -224 330 -411 330 -417 0 -5 -13 -10 -29 -10 -23 0 -936 -93 -1005 -102
-13 -2 123 -106 395 -302 228 -165 422 -306 432 -314 18 -16 4 -22 -778 -317
-99 -38 -184 -71 -188 -75 -4 -4 41 -25 100 -48 59 -22 275 -105 478 -183 204
-78 379 -145 389 -148 15 -6 -72 -73 -415 -321 l-433 -314 499 -53 c275 -28
512 -52 528 -52 15 -1 27 -5 27 -10 0 -5 -148 -190 -328 -412 -181 -222 -323
-405 -317 -407 9 -2 118 14 799 123 125 20 230 35 232 32 2 -2 -93 -219 -211
-482 -118 -263 -213 -480 -212 -482 4 -3 42 14 627 276 184 83 336 147 338
143 1 -4 -34 -232 -78 -506 -44 -275 -80 -507 -80 -517 0 -13 72 40 241 177
132 108 242 194 243 192 2 -1 -624 -1089 -1391 -2417 -766 -1328 -1392 -2416
-1390 -2417 2 -2 419 246 928 551 721 433 925 551 928 538 2 -9 -2 -292 -8
-627 -6 -336 -13 -804 -16 -1041 -3 -237 -8 -443 -11 -460 -3 -19 -1 -26 5
-20 6 6 550 945 1210 2088 659 1143 1202 2078 1206 2078 7 0 323 -546 1732
-2991 367 -635 672 -1162 680 -1170 12 -13 13 -11 9 15 -3 17 -8 223 -11 460
-3 237 -10 705 -16 1041 -6 335 -10 618 -8 627 3 14 206 -104 928 -538 509
-305 926 -553 928 -551 2 1 -558 975 -1243 2162 -1623 2811 -1544 2674 -1538
2674 2 0 112 -88 244 -195 162 -131 240 -189 240 -177 0 10 -36 244 -80 521
-44 277 -79 505 -77 507 2 2 219 -93 482 -211 263 -118 480 -213 482 -211 2 1
-93 219 -211 482 -118 263 -211 480 -207 482 4 1 109 -14 232 -33 595 -96 785
-125 795 -123 6 2 -137 185 -317 408 -181 222 -329 408 -329 412 0 4 9 8 19 8
10 0 212 20 447 45 236 24 465 47 508 51 l79 7 -24 20 c-13 10 -208 152 -432
315 l-408 295 108 42 c59 23 283 109 496 190 213 82 384 151 380 155 -4 4
-225 89 -490 190 -266 101 -483 187 -483 190 0 4 192 146 427 316 235 170 421
310 413 311 -27 5 -893 94 -967 100 -40 3 -73 9 -73 14 0 4 149 191 330 415
182 223 330 408 328 409 -2 1 -124 -17 -273 -41 -634 -103 -768 -124 -771
-121 -2 2 93 218 211 482 119 263 214 480 211 482 -2 2 -115 -46 -252 -108
-137 -61 -352 -158 -479 -214 -126 -57 -231 -102 -233 -101 -1 2 34 232 78
511 45 279 80 512 78 519 -2 7 -185 -135 -408 -315 -222 -181 -407 -329 -410
-329 -3 0 -30 235 -59 523 -29 287 -55 523 -56 525 -2 2 -54 -68 -117 -155
-64 -87 -201 -277 -307 -423 -105 -146 -195 -266 -199 -268 -5 -1 -88 208
-187 465 -98 258 -183 479 -190 492 -12 23 -15 18 -52 -80z"/>
</g>
</svg>
