<svg fill="none" height="50" viewBox="0 0 32 32" width="50" xmlns="http://www.w3.org/2000/svg"><path d="m19.382 29.9439c.5715.4613 1.2836.7132 2.0181.7141h.003c.1675-.0011.3346-.0152.5-.042l6.409-1c.4188-.0649.8206-.2122 1.1822-.4333.3616-.221.6758-.5115.9245-.8547s.427-.7322.5245-1.1447c.0976-.4124.1124-.8401.0438-1.2583l-2.854-19.81201c-.0654-.61335-.3553-1.18088-.8138-1.59346-.4585-.41257-1.0534-.64107-1.6702-.64154h-19.30004c-.61059.00072-1.1998.22486-1.65648.63014-.45668.40529-.74925.96369-.82252 1.56986l-2.859 19.85201c-.125738.8333.0811 1.6827.57589 2.365.4948.6822 1.23792 1.1426 2.06911 1.282l6.40604 1c.8153.1301 1.6495-.0577 2.3304-.5248.6808-.4671 1.1564-1.1777 1.3286-1.9852l1.567-7.807h1.423l1.547 7.862c.1558.7177.5524 1.3606 1.1239 1.8219zm-1.3702-11.2461c-.3422-.2841-.7729-.4397-1.2177-.4398l-.005.007h-1.564c-.4427.0192-.8694.1707-1.225.435-.3406.2793-.5738.668-.66 1.1l-1.573 7.855c-.0666.3051-.2476.5732-.5058.749-.2582.1757-.5739.2459-.8822.196l-6.40004-1c-.31171-.054-.58984-.228-.77473-.4847-.1849-.2566-.26182-.5756-.21427-.8883l1.70549-11.8669c.44525-.2863.86397-.618 1.2489-.9922 1.45773-1.4169 2.32138-3.3355 2.41551-5.36617h5.29444l-1.7523 6.44827c-.0336.1391-.0117.2859.0611.4091.0728.1233.1908.2133.3289.2509.0702.0244.1447.0337.2187.0275.074-.0063.1459-.0281.2109-.0639.0651-.0358.1219-.0849.1668-.1441.0448-.0592.0767-.1272.0936-.1995l1.8284-6.72827h2.379l1.8284 6.72827c.0169.0723.0488.1403.0936.1995.0449.0592.1017.1083.1668.1441.065.0358.1369.0576.2109.0639.074.0062.1485-.0031.2187-.0275.1381-.0376.2561-.1276.3289-.2509.0728-.1232.0947-.27.0611-.4091l-1.7523-6.44827h5.2745c.0991 2.02707.9649 3.94077 2.4221 5.35347.3887.3768.8118.7105 1.2617.9979l1.7152 11.8669v.024c.026.1578.0209.3192-.015.475-.055.2348-.1789.4479-.3559.6118-.1769.164-.3988.2713-.6371.3082l-6.414 1c-.3044.0489-.616-.0194-.872-.191-.2561-.1716-.4376-.4339-.508-.734l-1.549-7.9c-.0819-.4372-.314-.832-.6563-1.1162zm9.0974-5.6919c-.1325-.1095-.2612-.2241-.386-.3439-1.2783-1.2263-2.0441-2.89166-2.1431-4.66027h1.8058zm-22.21945.0029.71962-5.00707h1.79058c-.09405 1.77215-.8577 3.44247-2.13649 4.67297-.12031.1158-.24511.2273-.37371.3341zm10.33535 7.2552v-.006h.007z" fill="#FFFFFF"/></svg>
